<?xml version="1.0" standalone="no"?>
<!DOCTYPE svg PUBLIC "-//W3C//DTD SVG 20010904//EN"
 "http://www.w3.org/TR/2001/REC-SVG-20010904/DTD/svg10.dtd">
<svg version="1.0" xmlns="http://www.w3.org/2000/svg"
 width="128.000000pt" height="128.000000pt" viewBox="0 0 128.000000 128.000000"
 preserveAspectRatio="xMidYMid meet">
<metadata>
Created by potrace 1.11, written by Peter Selinger 2001-2013
</metadata>
<g transform="translate(0.000000,128.000000) scale(0.100000,-0.100000)"
fill="#000000" stroke="none">
<path d="M462 1254 c-7 -14 -17 -22 -23 -19 -25 16 -96 -90 -124 -185 l-7 -25
23 21 c35 32 99 69 140 83 35 11 37 14 47 74 11 71 9 77 -22 77 -15 0 -27 -9
-34 -26z"/>
<path d="M557 1223 c-8 -15 -18 -38 -22 -51 -6 -21 -4 -22 32 -18 21 2 42 5
46 5 5 1 7 20 5 44 -2 34 -7 43 -25 45 -16 2 -26 -5 -36 -25z"/>
<path d="M287 1117 c-20 -42 -46 -110 -57 -152 -11 -42 -36 -107 -54 -144 -35
-68 -50 -115 -60 -185 -4 -21 -22 -74 -41 -118 -40 -90 -41 -94 -19 -115 9 -9
12 -22 8 -32 -4 -9 -9 -27 -11 -41 -10 -55 94 -150 134 -123 19 12 19 16 8 46
-6 13 -2 17 15 17 17 0 21 4 15 17 -4 10 -11 38 -16 63 -5 25 -15 74 -23 110
-24 107 -14 274 22 387 17 51 33 107 36 126 3 19 24 72 46 117 23 45 40 86 37
93 -2 6 -20 -24 -40 -66z"/>
<path d="M938 1128 c12 -12 25 -19 28 -15 4 4 -1 14 -12 22 -29 22 -41 18 -16
-7z"/>
<path d="M950 1085 c0 -11 55 -53 62 -48 15 9 7 23 -22 38 -31 16 -40 18 -40
10z"/>
<path d="M1058 1060 c-1 -19 -9 -36 -15 -36 -7 -1 -15 -2 -18 -3 -3 0 8 -21
25 -46 17 -25 41 -68 52 -95 11 -28 23 -50 27 -50 3 0 7 -24 9 -52 1 -29 4
-62 6 -73 3 -11 5 -51 6 -90 1 -58 3 -66 12 -45 5 14 29 65 51 114 23 49 40
94 38 100 -3 6 -5 45 -5 86 -1 73 -2 77 -36 108 -46 41 -64 42 -56 2 4 -23 2
-30 -9 -30 -11 0 -14 -7 -9 -25 10 -38 -10 -30 -25 11 -7 20 -10 50 -7 69 5
26 2 39 -18 62 l-24 28 -4 -35z"/>
<path d="M575 1030 c-113 -25 -208 -124 -221 -230 -3 -30 -12 -68 -18 -85 -18
-46 -12 -231 9 -296 23 -70 39 -94 96 -150 51 -51 109 -75 198 -83 l53 -5 -7
36 c-3 19 -8 98 -10 174 -2 76 -6 143 -10 149 -4 6 -7 38 -6 71 0 32 -4 59 -9
59 -6 0 -11 -35 -11 -77 -1 -43 -2 -82 -4 -88 -1 -5 -3 -23 -3 -39 -3 -59 -21
-10 -38 107 -13 91 -15 123 -6 137 6 10 14 40 17 67 8 60 12 242 5 252 -3 4
-18 4 -35 1z m-85 -325 c0 -52 -13 -59 -29 -15 -12 35 -5 60 15 60 10 0 14
-13 14 -45z"/>
<path d="M847 921 c4 -61 -7 -187 -22 -266 -4 -21 -3 -26 3 -15 6 8 15 42 22
75 16 82 20 96 29 90 17 -10 -6 -182 -28 -215 -33 -48 -88 -230 -108 -362 l-6
-37 32 9 c40 11 91 42 126 77 32 33 85 121 85 143 0 13 -1 13 -10 0 -19 -31
-17 -2 7 85 25 92 31 191 15 236 -9 22 -10 20 -17 -18 -6 -41 -20 -61 -32 -50
-3 3 1 22 7 43 28 84 12 156 -47 219 -58 62 -60 62 -56 -14z m84 -349 c-6 -22
-21 -34 -21 -17 -1 19 14 54 20 50 5 -3 5 -17 1 -33z m-46 -114 c-15 -54 -98
-209 -105 -197 -5 7 -4 19 0 28 5 9 28 55 51 104 22 48 45 87 51 87 5 0 7 -10
3 -22z"/>
<path d="M275 210 c-11 -18 6 -50 34 -65 16 -8 31 -12 34 -8 8 8 -12 44 -36
66 -23 20 -24 20 -32 7z"/>
<path d="M440 66 c0 -16 32 -46 49 -46 8 0 6 8 -6 25 -21 29 -43 40 -43 21z"/>
<path d="M782 73 c-6 -2 -10 -9 -6 -14 8 -14 31 -11 38 6 5 15 -7 18 -32 8z"/>
<path d="M527 51 c5 -20 39 -35 48 -21 10 16 -8 40 -30 40 -18 0 -22 -4 -18
-19z"/>
</g>
</svg>
